<svg xmlns="http://www.w3.org/2000/svg" width="14.006" height="10.728" viewBox="0 0 14.006 10.728"><defs><style>.a{fill:#15b130;}</style></defs><g transform="translate(0 -81)"><g transform="translate(0 81)"><path class="a" d="M12.775,81H1.231A1.312,1.312,0,0,0,0,82.379v7.969a1.312,1.312,0,0,0,1.231,1.379H12.775a1.312,1.312,0,0,0,1.231-1.379V82.379A1.312,1.312,0,0,0,12.775,81Zm-.985,7.889a.381.381,0,0,1-.578-.052l-2.368-3.12L7.206,86.763a.372.372,0,0,1-.407,0L5.163,85.717l-2.368,3.12a.381.381,0,0,1-.578.052.5.5,0,0,1-.047-.648l2.268-2.988L2.423,83.965a.491.491,0,0,1-.153-.627.388.388,0,0,1,.56-.172L7,85.835l4.174-2.668a.388.388,0,0,1,.56.172.491.491,0,0,1-.153.627L9.569,85.253l2.268,2.988A.5.5,0,0,1,11.79,88.889Z" transform="translate(0 -81)"/></g></g></svg>