<svg xmlns="http://www.w3.org/2000/svg" width="12.504" height="14.988" viewBox="0 0 12.504 14.988"><defs><style>.a{fill:#15b130;}</style></defs><g transform="translate(0 0)"><path class="a" d="M90.642,7.22a3.493,3.493,0,0,0,2.552-1.058A3.493,3.493,0,0,0,94.252,3.61a3.493,3.493,0,0,0-1.058-2.552,3.609,3.609,0,0,0-5.1,0A3.493,3.493,0,0,0,87.032,3.61a3.493,3.493,0,0,0,1.058,2.552A3.494,3.494,0,0,0,90.642,7.22Zm0,0" transform="translate(-84.484)"/><path class="a" d="M12.474,251.6a8.916,8.916,0,0,0-.121-.947,7.462,7.462,0,0,0-.233-.952,4.7,4.7,0,0,0-.391-.888,3.351,3.351,0,0,0-.59-.769,2.6,2.6,0,0,0-.848-.533,2.93,2.93,0,0,0-1.082-.2,1.1,1.1,0,0,0-.587.249c-.176.115-.382.247-.611.394a3.5,3.5,0,0,1-.791.348,3.071,3.071,0,0,1-1.935,0,3.494,3.494,0,0,1-.79-.348c-.227-.145-.433-.278-.612-.394a1.1,1.1,0,0,0-.586-.249,2.927,2.927,0,0,0-1.082.2,2.6,2.6,0,0,0-.848.533,3.352,3.352,0,0,0-.59.769,4.712,4.712,0,0,0-.391.888,7.48,7.48,0,0,0-.233.952,8.885,8.885,0,0,0-.121.947c-.02.287-.03.584-.03.885a2.489,2.489,0,0,0,.739,1.883,2.661,2.661,0,0,0,1.9.695H9.86a2.66,2.66,0,0,0,1.9-.695,2.488,2.488,0,0,0,.739-1.883c0-.3-.01-.6-.03-.885Zm0,0" transform="translate(0 -240.076)"/></g></svg>